<?xml version="1.0" encoding="UTF-8"?>
<svg id="SVGDoc" width="24" height="24" xmlns="http://www.w3.org/2000/svg" version="1.1" xmlns:xlink="http://www.w3.org/1999/xlink" xmlns:avocode="https://avocode.com/" viewBox="0 0 24 24"><defs></defs><desc>Generated with Avocode.</desc><g><g><title>Прямоугольник, скругл. углы 1 копия</title><path d="M3.99995,0.99978h2.99995c1.65688,0 3.00007,1.34318 3.00007,3.0002v2.9999c0,1.65671 -1.34319,2.9999 -3.00007,2.9999h-2.99995c-1.65688,0 -2.99995,-1.34318 -2.99995,-2.9999v-2.9999c0,-1.65702 1.34308,-3.0002 2.99995,-3.0002zM16.99998,0.99978h2.99995c1.65688,0 3.00007,1.34318 3.00007,3.0002v2.9999c0,1.65671 -1.34319,2.9999 -3.00007,2.9999h-2.99995c-1.65688,0 -3.00007,-1.34318 -3.00007,-2.9999v-2.9999c0,-1.65702 1.34319,-3.0002 3.00007,-3.0002zM3.99995,13.99984h2.99995c1.65688,0 3.00007,1.34318 3.00007,2.9999v3.0002c0,1.65671 -1.34319,2.9999 -3.00007,2.9999h-2.99995c-1.65688,0 -2.99995,-1.34318 -2.99995,-2.9999v-3.0002c0,-1.65671 1.34308,-2.9999 2.99995,-2.9999zM16.99998,13.99984h2.99995c1.65688,0 3.00007,1.34318 3.00007,2.9999v3.0002c0,1.65671 -1.34319,2.9999 -3.00007,2.9999h-2.99995c-1.65688,0 -3.00007,-1.34318 -3.00007,-2.9999v-3.0002c0,-1.65671 1.34319,-2.9999 3.00007,-2.9999z" fill-opacity="0" fill="#ffffff" stroke-dashoffset="0" stroke-dasharray="" stroke-linejoin="round" stroke-linecap="round" stroke-opacity="1" stroke="#43a1d0" stroke-miterlimit="20" stroke-width="2"></path></g></g></svg>