<?xml version="1.0" encoding="UTF-8"?>
<svg id="SVGDoc" width="18" height="18" xmlns="http://www.w3.org/2000/svg" version="1.1" xmlns:xlink="http://www.w3.org/1999/xlink" xmlns:avocode="https://avocode.com/" viewBox="0 0 18 18"><defs></defs><desc>Generated with Avocode.</desc><g><g><title>Фигура 20</title><path d="M17.66691,16.02634c0,0.43821 -0.17052,0.85001 -0.48042,1.15985c-0.31002,0.30985 -0.72201,0.48059 -1.16009,0.48059c-0.43819,0 -0.85018,-0.17074 -1.15997,-0.48059l-5.86647,-5.86652v0l-5.86647,5.86652c-0.30979,0.30985 -0.72178,0.48059 -1.15997,0.48059c-0.43819,0 -0.85007,-0.17074 -1.15997,-0.48059c-0.30979,-0.30985 -0.48042,-0.72165 -0.48042,-1.15985c0,-0.43821 0.17063,-0.85001 0.48042,-1.15985l5.86647,-5.86652v0l-5.86647,-5.86652c-0.6395,-0.63965 -0.6395,-1.68036 0,-2.32001c0.30991,-0.30985 0.72178,-0.48059 1.15997,-0.48059c0.43819,0 0.85018,0.17074 1.15997,0.48059l5.86658,5.86652v0l5.86636,-5.86652c0.31002,-0.30985 0.72189,-0.48059 1.15997,-0.48059c0.43819,0 0.85007,0.17074 1.15986,0.48059c0.31002,0.30985 0.48054,0.72195 0.48054,1.15985c0,0.43821 -0.17052,0.85031 -0.48054,1.16016l-5.86647,5.86652v0l5.8667,5.86652c0.30991,0.30985 0.48042,0.72165 0.48042,1.15985z" fill="#43a1d0" fill-opacity="1"></path></g></g></svg>